<?xml version="1.0" encoding="UTF-8" standalone="no"?>
<svg
   version="1.1"
   width="1024"
   height="1024"
   id="svg41"
   xmlns="http://www.w3.org/2000/svg"
   xmlns:svg="http://www.w3.org/2000/svg">
  <defs
     id="defs41" />
  <path
     d="M 364.00439,299.45215 C 469.68424,377.21732 535.21481,519.35292 493.7066,648.72388 471.81092,721.86512 416.44608,793.87267 338.29055,809.01595 280.95379,809.56668 256.55549,748.26627 238.25292,703.86516 210.66593,652.65383 235.30063,602.55272 274.54566,569.5871 253.12646,547.45627 214.23289,533.07973 200.94823,498.69187 167.5882,434.69866 161.95751,360.17548 158.68856,289.30942 c -6.37787,-47.2303 52.04459,-66.5397 88.3292,-49.86419 43.0663,10.65111 80.88074,35.16228 116.98663,60.00692 z"
     fill="#ffffff"
     id="path2" />
  <path
     d="m 817.0625,236.6875 c 41.61915,-4.31793 59.39933,44.54941 49.12568,78.3887 -8.07126,56.8285 -5.59583,116.17772 -25.36142,170.68409 -17.82595,37.09112 -54.69203,63.72338 -93.07281,76.72946 -31.66462,14.18126 32.39463,24.84702 37.22271,44.65827 23.13706,34.13697 7.91559,78.24213 -4.50028,113.57139 -14.70422,30.74964 -30.79856,65.73747 -61.77448,82.8339 C 671.38599,820.60088 623.84338,787.28445 592.19513,754.6909 514.52416,674.65431 499.41403,547.29549 545.26625,447.4658 592.6254,343.0049 688.08467,253.44661 804.52982,237.17972 l 6.26075,-0.38284 z"
     fill="#ffffff"
     id="path3" />
  <path
     d="m 203,276 c 99.99763,4.85071 183.62711,76.69316 233.95898,158.7992 18.53209,20.4698 38.39918,84.70377 -7.42142,52.77424 -14.28061,-25.65232 -34.24423,-41.00922 -65.05388,-39.16972 -15.23643,-21.18543 -43.7918,-35.0901 -52.63627,-60.79251 18.6369,-37.76143 -39.23685,-75.35248 -64.93923,-40.53954 -22.33105,26.8264 4.54715,67.8407 38.00177,59.08155 30.28459,2.64706 45.50013,33.3959 65.21178,52.67764 13.01453,28.37898 -5.73653,66.91638 -35.04502,77.16575 C 273.036,542.66062 237.74325,502.40358 225.74759,465.58592 206.74432,408.94055 193.18303,348.6459 197.91108,288.73844 199.1764,284.33565 200.92014,280.0783 203,276 Z"
     fill="#000000"
     id="path4" />
  <path
     d="m 416,506 c 19.13134,6.27709 48.23571,8.78288 55.60083,29.98917 -4.61044,23.87313 -31.52778,35.48657 -44.44225,54.92696 -17.96635,18.39476 -35.32742,43.57279 -63.93785,32.72191 -31.93612,0.38789 -44.51573,48.35821 -18.75537,66.30083 22.02102,17.95742 63.6936,2.86664 60.92893,-27.88806 -9.09307,-29.5084 25.66584,-39.7692 39.57905,-59.96928 8.83398,-7.84602 27.87731,-35.43423 23.7264,-8.60535 -6.89327,66.48417 -40.51753,133.98398 -100.23487,167.6064 -21.10114,13.94213 -53.28489,15.28415 -66.34999,-10.3186 -24.24088,-38.92441 -48.05277,-85.20411 -36.85418,-132.47727 13.31747,-22.34025 37.24815,-35.43285 53.74221,-55.22008 22.03863,-17.707 37.46412,-53.86417 69.38608,-40.73331 C 400.17476,522.28688 409.79705,515.66225 416,506 Z"
     fill="#000000"
     id="path5" />
  <path
     d="m 415,230 c 48.66876,28.10115 77.48939,81.18633 89.10386,134.76239 -2.09039,19.24283 20.38505,25.81032 18.27746,2.36637 12.41066,-58.2735 44.73494,-117.5379 101.34007,-142.70894 14.8308,-10.66719 49.72553,-7.3437 38.05151,17.52742 -12.70703,14.03311 -36.88117,8.13593 -50.94111,22.68197 -35.8758,24.89298 -59.96264,63.76891 -72.44172,105.11042 -15.5594,20.60136 16.7728,42.91149 1.28935,63.42099 -12.7772,21.48663 -47.15702,19.12788 -57.79368,-3.05603 -14.63817,-20.09616 14.9745,-32.53941 9.91227,-52.47758 -12.2069,-49.64848 -44.45506,-94.43385 -87.86597,-121.51563 -14.06484,-7.32239 -39.11356,-0.49425 -44.01067,-20.116 -2.45132,-20.53657 24.43666,-21.11607 37.46057,-14.04923 6.00825,2.38062 11.74091,5.3797 17.61806,8.05385 z"
     fill="#ffffff"
     id="path6" />
  <path
     d="m 758,316 c 14,0 28,0 42,0 1.80251,49.41015 1.903,98.98029 -0.27587,148.34387 -4.49449,20.55091 -18.63112,55.75199 -42.11196,53.59609 -2.28176,-18.74373 0.86487,-38.22172 -0.49463,-57.43296 C 756.95735,412.33856 756.01921,364.14582 758,316 Z"
     fill="#000000"
     id="path7" />
  <path
     d="m 727,380 c 0,51.33333 0,102.66667 0,154 -13.55927,4.1963 -27.87674,6.67172 -42.08263,5.75485 -4.92787,-1.89575 -2.24553,-8.16043 -2.91737,-12.15053 0,-48.86811 0,-97.73621 0,-146.60432 14.6106,-4.78282 30.0595,-0.96167 45,-1 z"
     fill="#000000"
     id="path8" />
  <path
     d="m 649,629 c 10,0 20,0 30,0 0,47 0,94 0,141 -10.2232,-3.62026 -20.07574,-8.23824 -29.54555,-13.51307 -4.18188,-6.61184 -0.83301,-14.81536 -1.88145,-22.11479 0.34146,-33.00748 -0.42371,-66.05159 0.83911,-99.03445 0.1885,-2.11325 0.39581,-4.22477 0.58789,-6.33769 z"
     fill="#000000"
     id="path9" />
  <path
     d="m 560,580 c 19.84453,16.17918 34.56221,37.39598 50.91391,56.85065 6.41401,7.49754 8.09959,17.36325 7.17554,26.89901 C 618.08376,685.83313 618.04383,707.91658 618,730 590.01018,701.09302 572.19881,663.20935 564.14467,624.02732 561.34981,609.5307 559.95618,594.76373 560,580 Z"
     fill="#000000"
     id="path10" />
  <path
     d="m 608,450 c 15,0 30,0 45,0 0,29.66667 0,59.33333 0,89 -15,0 -30,0 -45,0 0,-29.66667 0,-59.33333 0,-89 z"
     fill="#000000"
     id="path11" />
  <path
     d="m 711,668 c 9.33333,0 18.66667,0 28,0 -0.24592,18.31325 1.33727,36.69628 -0.3895,54.95955 -3.59062,16.06979 -14.67633,28.81772 -24.24886,41.68896 -6.95242,2.70921 -3.86172,-7.79247 -4.03998,-11.69006 C 710.18766,724.64011 710.82411,696.31916 711,668 Z"
     fill="#000000"
     id="path12" />
</svg>
